<?xml version="1.0" encoding="utf-8"?>
<!-- Generator: Adobe Illustrator 17.0.2, SVG Export Plug-In . SVG Version: 6.00 Build 0)  -->
<!DOCTYPE svg PUBLIC "-//W3C//DTD SVG 1.1//EN" "http://www.w3.org/Graphics/SVG/1.1/DTD/svg11.dtd">
<svg version="1.1" id="Layer_1" xmlns="http://www.w3.org/2000/svg" xmlns:xlink="http://www.w3.org/1999/xlink" x="0px" y="0px"
	 width="150px" height="150px" viewBox="0 0 150 150" enable-background="new 0 0 150 150" xml:space="preserve">
<g>
	<rect x="5.651" y="5.651" fill="#232323" width="138.699" height="138.699"/>
	<path fill="#EF4F2E" d="M150,150H0V0h150V150z M11.301,138.699h127.397V11.301H11.301V138.699z"/>
</g>
<g>
	<path fill="#EF4F2E" d="M16.846,117.834l27.393-81.529h17.849l27.51,81.529H75.343l-6.245-18.792h-32.34l-6.186,18.792H16.846z
		 M40.704,86.73h24.27l-12.076-36.7L40.704,86.73z"/>
	<path fill="#EF4F2E" d="M96.101,93.042c0.034,2.727,0.319,5.133,0.854,7.22c0.534,2.089,1.371,3.83,2.51,5.229
		c1.139,1.396,2.614,2.458,4.426,3.183s4.045,1.087,6.702,1.087c2.484,0,4.685-0.422,6.6-1.268s3.683-2.286,5.305-4.322l8.54,5.797
		c-1.035,1.553-2.191,2.916-3.468,4.089c-1.276,1.174-2.761,2.157-4.451,2.95c-1.69,0.794-3.614,1.397-5.771,1.812
		c-2.157,0.414-4.615,0.621-7.376,0.621c-8.661,0-15.053-2.389-19.176-7.169c-4.124-4.778-6.186-11.826-6.186-21.143
		c0-4.382,0.44-8.359,1.32-11.931c0.88-3.571,2.294-6.633,4.244-9.187c1.949-2.553,4.494-4.529,7.634-5.926
		s6.987-2.096,11.542-2.096c4.037,0,7.479,0.604,10.326,1.812c2.847,1.208,5.167,2.916,6.961,5.124
		c1.794,2.208,3.105,4.865,3.934,7.971s1.242,6.539,1.242,10.3v5.849H96.101V93.042z M120.789,84.864
		c0-4.521-0.949-7.962-2.847-10.326c-1.897-2.363-4.883-3.545-8.954-3.545c-2.07,0-3.839,0.302-5.305,0.906
		c-1.467,0.604-2.691,1.493-3.675,2.666c-0.983,1.173-1.769,2.622-2.355,4.348s-1.035,3.709-1.346,5.952L120.789,84.864
		L120.789,84.864z"/>
</g>
</svg>
