<?xml version="1.0" encoding="utf-8"?>
<!-- Generator: Adobe Illustrator 17.0.2, SVG Export Plug-In . SVG Version: 6.00 Build 0)  -->
<!DOCTYPE svg PUBLIC "-//W3C//DTD SVG 1.1//EN" "http://www.w3.org/Graphics/SVG/1.1/DTD/svg11.dtd">
<svg version="1.1" id="Layer_1" xmlns="http://www.w3.org/2000/svg" xmlns:xlink="http://www.w3.org/1999/xlink" x="0px" y="0px"
	 width="150px" height="150px" viewBox="0 0 150 150" enable-background="new 0 0 150 150" xml:space="preserve">
<g>
	<rect x="5.651" y="5.651" fill="#232323" width="138.699" height="138.699"/>
	<path fill="#EF4F2E" d="M150,150H0V0h150V150z M11.301,138.699h127.397V11.301H11.301V138.699z"/>
</g>
<g>
	<path fill="#EF4F2E" d="M70.425,77.069c0,8.012-0.724,14.649-2.173,19.911c-1.449,5.263-3.613,9.436-6.492,12.518
		c-2.88,3.084-6.441,5.243-10.683,6.48s-9.156,1.855-14.743,1.855H16.313V36.305h19.813c5.724,0,10.734,0.688,15.028,2.062
		c4.294,1.375,7.872,3.652,10.734,6.833s5,7.374,6.415,12.577C69.717,62.981,70.425,69.412,70.425,77.069z M57.802,76.952
		c0-5.498-0.38-10.054-1.138-13.667c-0.759-3.613-2.018-6.489-3.776-8.63c-1.759-2.14-4.087-3.642-6.984-4.506
		c-2.897-0.863-6.484-1.296-10.76-1.296h-6.777v56.434h6.777c4.345,0,7.967-0.461,10.864-1.384s5.225-2.475,6.984-4.654
		c1.759-2.18,3-5.085,3.725-8.718C57.44,86.898,57.802,82.371,57.802,76.952z"/>
	<path fill="#EF4F2E" d="M123.618,117.834h-8.74L103.907,80.51l-11.06,37.324h-8.785l-12.13-53.27h9.944l7.581,37.477l10.792-37.477
		h7.582l10.97,37.375l7.313-37.375h9.589L123.618,117.834z"/>
</g>
</svg>
