<?xml version="1.0" encoding="utf-8"?>
<!-- Generator: Adobe Illustrator 17.0.2, SVG Export Plug-In . SVG Version: 6.00 Build 0)  -->
<!DOCTYPE svg PUBLIC "-//W3C//DTD SVG 1.1//EN" "http://www.w3.org/Graphics/SVG/1.1/DTD/svg11.dtd">
<svg version="1.1" id="Layer_1" xmlns="http://www.w3.org/2000/svg" xmlns:xlink="http://www.w3.org/1999/xlink" x="0px" y="0px"
	 width="150px" height="150px" viewBox="0 0 150 150" enable-background="new 0 0 150 150" xml:space="preserve">
<g>
	<rect x="5.651" y="5.651" fill="#232323" width="138.699" height="138.699"/>
	<path fill="#EF4F2E" d="M150,150H0V0h150V150z M11.301,138.699h127.397V11.301H11.301V138.699z"/>
</g>
<g>
	<path fill="#EF4F2E" d="M15.181,117.834l27.393-81.529h17.849l27.51,81.529H73.677l-6.245-18.792h-32.34l-6.186,18.792H15.181z
		 M39.039,86.73h24.27l-12.076-36.7L39.039,86.73z"/>
	<path fill="#EF4F2E" d="M122.271,117.834V88.051c0-2.59-0.084-4.789-0.249-6.6c-0.167-1.809-0.523-3.278-1.071-4.407
		c-0.548-1.128-1.319-1.942-2.315-2.44s-2.325-0.747-3.984-0.747c-1.096,0-2.267,0.216-3.512,0.647
		c-1.245,0.432-2.507,1.021-3.785,1.768c-1.278,0.747-2.564,1.611-3.859,2.59c-1.295,0.98-2.54,2.001-3.735,3.063v35.909H89.052
		V65.589H99.76v7.271c1.128-1.128,2.391-2.224,3.785-3.287c1.395-1.062,2.863-2,4.407-2.814c1.544-0.813,3.138-1.46,4.781-1.942
		c1.644-0.481,3.295-0.722,4.956-0.722c2.921,0,5.361,0.416,7.321,1.245c1.958,0.831,3.527,2.051,4.706,3.661
		c1.179,1.611,2.018,3.586,2.516,5.927c0.498,2.34,0.747,5.022,0.747,8.043v34.863H122.271z"/>
</g>
</svg>
