<?xml version="1.0" encoding="utf-8"?>
<!-- Generator: Adobe Illustrator 17.0.2, SVG Export Plug-In . SVG Version: 6.00 Build 0)  -->
<!DOCTYPE svg PUBLIC "-//W3C//DTD SVG 1.1//EN" "http://www.w3.org/Graphics/SVG/1.1/DTD/svg11.dtd">
<svg version="1.1" id="Layer_1" xmlns="http://www.w3.org/2000/svg" xmlns:xlink="http://www.w3.org/1999/xlink" x="0px" y="0px"
	 width="150px" height="150px" viewBox="0 0 150 150" enable-background="new 0 0 150 150" xml:space="preserve">
<g>
	<rect x="5.776" y="5.651" fill="#232323" width="138.699" height="138.699"/>
	<path fill="#EF4F2E" d="M150.125,150h-150V0h150V150z M11.426,138.699h127.397V11.301H11.426V138.699z"/>
</g>
<g>
	<path fill="#EF4F2E" d="M23.348,117.834L50.74,36.305h17.849l27.509,81.529H81.844l-6.245-18.792h-32.34l-6.186,18.792H23.348z
		 M47.206,86.73h24.27L59.4,50.03L47.206,86.73z"/>
	<path fill="#EF4F2E" d="M118.652,39.781c0,2.592-0.619,4.389-1.855,5.39c-1.237,1.001-3.152,1.502-5.744,1.502
		c-2.827,0-4.781-0.589-5.861-1.767s-1.62-2.887-1.62-5.125c0-2.435,0.569-4.192,1.709-5.272c1.139-1.08,3.062-1.62,5.772-1.62
		s4.654,0.53,5.832,1.591C118.063,35.539,118.652,37.307,118.652,39.781z M104.809,117.834V56.039h12.665v61.795H104.809z"/>
</g>
</svg>
