<?xml version="1.0" encoding="utf-8"?>
<!-- Generator: Adobe Illustrator 17.0.2, SVG Export Plug-In . SVG Version: 6.00 Build 0)  -->
<!DOCTYPE svg PUBLIC "-//W3C//DTD SVG 1.1//EN" "http://www.w3.org/Graphics/SVG/1.1/DTD/svg11.dtd">
<svg version="1.1" id="Layer_1" xmlns="http://www.w3.org/2000/svg" xmlns:xlink="http://www.w3.org/1999/xlink" x="0px" y="0px"
	 width="150px" height="150px" viewBox="0 0 150 150" enable-background="new 0 0 150 150" xml:space="preserve">
<g>
	<rect x="5.651" y="5.651" fill="#232323" width="138.699" height="138.699"/>
	<path fill="#EF4F2E" d="M150,150H0V0h150V150z M11.301,138.699h127.397V11.301H11.301V138.699z"/>
</g>
<g>
	<path fill="#EF4F2E" d="M39.948,117.834V30.12h12.666v87.714H39.948z"/>
	<path fill="#EF4F2E" d="M97.347,117.834v-5.578c-2.37,2.115-5.04,3.855-8.012,5.223s-6.226,2.051-9.762,2.051
		c-3.865,0-7.183-0.738-9.953-2.215c-2.771-1.477-5.05-3.545-6.836-6.207c-1.787-2.661-3.099-5.814-3.938-9.461
		c-0.839-3.646-1.258-7.656-1.258-12.031c0-3.938,0.419-7.757,1.258-11.457c0.838-3.7,2.196-6.981,4.074-9.844
		c1.877-2.862,4.311-5.159,7.301-6.891c2.989-1.731,6.636-2.598,10.938-2.598c2.844,0,5.642,0.556,8.395,1.668
		c2.753,1.112,5.168,2.598,7.246,4.457V32.888h11.758v84.946H97.347z M96.8,74.959c-0.875-0.766-1.832-1.495-2.871-2.188
		c-1.039-0.692-2.142-1.303-3.309-1.832c-1.167-0.528-2.37-0.948-3.609-1.258c-1.239-0.31-2.497-0.465-3.773-0.465
		c-1.823,0-3.555,0.392-5.195,1.176c-1.641,0.784-3.072,1.996-4.293,3.637c-1.222,1.641-2.197,3.728-2.926,6.262
		c-0.729,2.534-1.094,5.569-1.094,9.105c0,6.417,1.066,11.303,3.199,14.656c2.133,3.354,5.277,5.031,9.434,5.031
		c1.312,0,2.634-0.173,3.965-0.52c1.331-0.346,2.616-0.82,3.855-1.422s2.425-1.294,3.555-2.078c1.13-0.783,2.151-1.613,3.062-2.488
		L96.8,74.959L96.8,74.959z"/>
</g>
</svg>
