<?xml version="1.0" encoding="utf-8"?>
<!-- Generator: Adobe Illustrator 17.0.2, SVG Export Plug-In . SVG Version: 6.00 Build 0)  -->
<!DOCTYPE svg PUBLIC "-//W3C//DTD SVG 1.1//EN" "http://www.w3.org/Graphics/SVG/1.1/DTD/svg11.dtd">
<svg version="1.1" id="Layer_1" xmlns="http://www.w3.org/2000/svg" xmlns:xlink="http://www.w3.org/1999/xlink" x="0px" y="0px"
	 width="600px" height="800px" viewBox="0 0 600 800" enable-background="new 0 0 600 800" xml:space="preserve">
<g>
	<polygon fill="#A2C1C1" points="456.367,98.555 558.404,98.555 537.358,315.495 456.367,337.339 	"/>
	<g>
		<path fill="#779091" d="M456.367,337.339L456.367,337.339L456.367,337.339L456.367,337.339z"/>
		<path fill="#779091" d="M326.702,76.213l24.936,256.737l104.729,27.529l101.737-27.529L583.04,76.213H326.702z M537.358,315.495
			l-80.991,21.844l0,0l0,0l0,0V98.555h102.036L537.358,315.495z"/>
	</g>
	<polygon fill="#F5F6F6" points="456.068,152.416 379.067,186.229 456.068,191.216 	"/>
	<g>
		<polygon fill="#ECF2F1" points="372.185,120.997 456.068,120.997 456.068,152.416 376.773,152.416 		"/>
		<polygon fill="#ECF2F1" points="456.068,186.229 456.068,218.346 382.159,218.346 379.067,186.229 		"/>
		<polygon fill="#ECF2F1" points="456.068,270.711 456.068,306.418 388.543,286.071 384.453,235.701 417.568,235.701 
			420.261,261.435 		"/>
	</g>
	<polygon fill="#F5F6F6" points="456.068,120.997 537.558,120.997 534.466,152.416 456.068,186.229 532.271,186.229 
		523.195,286.869 456.068,306.418 456.068,270.711 492.773,260.437 495.566,218.346 456.068,218.346 	"/>
	<g>
		<polygon fill="#232323" points="424.35,10.283 424.35,27.738 400.213,27.738 400.213,43.597 424.35,43.597 424.35,60.354 
			381.86,60.354 381.86,10.283 		"/>
		<polygon fill="#232323" points="439.711,10.283 481.303,10.283 481.303,28.037 465.145,28.037 481.802,44.694 481.802,60.354 
			439.711,60.354 439.711,43.896 455.869,43.896 439.711,27.638 		"/>
		<polygon fill="#232323" points="497.461,10.283 539.154,10.283 539.154,28.037 522.995,28.037 539.553,44.694 539.553,60.354 
			497.461,60.354 497.461,43.896 513.62,43.896 497.461,27.638 		"/>
	</g>
</g>
<g id="Layer_3_1_">
	<polygon fill="#CC4329" points="457.664,768.425 457.664,768.425 457.564,768.425 	"/>
</g>
<g id="Layer_4">
	<polygon fill="#F0532E" points="455.47,524.755 561.795,524.755 539.852,750.671 455.47,773.412 	"/>
</g>
<g>
	<path fill="#CC4329" d="M457.564,768.425L457.564,768.425L457.564,768.425L457.564,768.425z"/>
	<path fill="#CC4329" d="M327.899,507.3l24.936,256.737l104.73,27.529l101.737-27.529L584.237,507.3
		C584.337,507.3,327.899,507.3,327.899,507.3z M538.555,746.582l-80.991,21.844l0,0l0,0l0,0V529.742h102.036L538.555,746.582z"/>
</g>
<polygon fill="#ECF2F1" points="371.686,549.989 457.664,549.989 457.664,577.818 402.706,577.818 409.189,675.366 447.889,675.366 
	450.582,646.141 457.664,646.141 457.664,739.201 405,744.786 402.906,724.439 441.905,719.95 443.501,703.992 384.254,703.992 "/>
<polygon fill="#F5F6F6" points="457.664,549.989 535.064,549.989 522.297,703.992 463.449,703.992 457.664,739.201 457.664,646.141 
	471.927,646.141 467.738,674.368 492.873,674.368 500.553,577.618 457.664,577.818 "/>
<polygon fill="#020202" points="357.722,443.564 373.881,443.564 373.881,494.034 343.26,494.034 343.26,477.277 351.937,477.277 
	351.937,481.267 361.513,481.267 361.513,449.748 357.822,449.748 "/>
<path fill="#020202" d="M379.267,443.564v50.569h34.212v-50.569H379.267z M390.039,482.464v-27.329h14.163v21.544l-7.082-6.982
	l-5.586,5.586l7.281,7.281h-8.777V482.464z"/>
<polygon fill="#020202" points="419.363,443.564 432.928,443.564 432.928,480.17 446.294,480.17 446.294,443.564 459.759,443.564 
	459.759,494.034 419.363,494.034 "/>
<polygon fill="#020202" points="463.649,443.564 500.354,443.564 500.354,457.728 476.715,457.728 476.715,462.715 499.257,462.715 
	499.257,474.983 476.316,474.983 476.316,481.067 500.553,481.067 500.553,494.034 463.649,494.034 "/>
<path fill="#020202" d="M531.673,477.576h5.984v-34.012h-33.314v50.569h10.872v-16.458h1.396l7.381,16.458h15.061L531.673,477.576z
	 M515.116,465.607v-11.47h9.476v11.47H515.116z"/>
<polygon fill="#020202" points="540.351,443.564 554.714,443.564 559.701,460.022 565.885,443.564 579.45,443.564 564.987,476.08 
	564.987,494.034 553.816,494.034 553.816,476.08 "/>
<g id="Layer_2">
	<polygon fill="#BFBFA3" points="147.465,530.939 249.502,530.939 228.456,747.779 147.465,769.722 	"/>
	<g>
		<path fill="#8E8C77" d="M147.366,769.622L147.366,769.622L147.366,769.622L147.366,769.622z"/>
		<path fill="#8E8C77" d="M17.8,508.596l24.936,256.737l104.73,27.529l101.737-27.529l24.936-256.737L17.8,508.596L17.8,508.596z
			 M228.456,747.779l-80.991,21.844l0,0l0,0l0,0V530.939h102.036L228.456,747.779z"/>
	</g>
	<g id="Layer_1_1_">
	</g>
	<g>
		<polyline fill="#232323" points="120.734,475.881 96.597,475.881 96.597,492.737 139.087,492.737 139.087,442.667 
			120.734,442.667 		"/>
		<polygon fill="#232323" points="154.348,442.667 196.04,442.667 196.04,460.421 179.882,460.421 196.439,476.978 196.439,492.737 
			154.348,492.737 154.348,476.28 170.506,476.28 154.348,459.922 		"/>
	</g>
	<polygon fill="#ECF2F1" points="112.356,565.749 139.386,565.749 139.386,732.618 55.503,709.976 55.503,679.754 112.356,694.616 	
		"/>
	<polygon fill="#F5F6F6" points="155.245,565.749 240.226,565.749 236.934,594.973 181.677,594.973 181.677,639.059 
		232.945,633.773 225.165,715.263 155.245,732.618 155.245,700.9 205.914,688.532 208.009,665.491 155.245,676.064 	"/>
</g>
<g id="Layer_3_3_">
	<polygon fill="#CC4329" points="148.961,337.339 148.961,337.339 148.862,337.339 	"/>
</g>
<g id="Layer_4_1_">
	<polygon fill="#F0532E" points="146.867,93.568 253.093,93.568 231.149,319.485 146.867,342.326 	"/>
</g>
<g id="Layer_2_1_">
	<g>
		<path fill="#CC4329" d="M148.862,337.339L148.862,337.339L148.862,337.339L148.862,337.339z"/>
		<path fill="#CC4329" d="M19.296,76.213L44.232,332.95l104.73,27.529l101.737-27.529l24.936-256.737H19.296z M229.952,315.495
			l-80.991,21.844l0,0l0,0l0,0V98.555h102.036L229.952,315.495z"/>
	</g>
	<polygon fill="#F5F6F6" points="148.961,129.675 227.558,129.675 224.167,161.393 148.961,161.393 	"/>
	<polygon fill="#F5F6F6" points="148.961,193.011 221.674,193.011 212.996,289.362 148.961,307.117 148.961,274.202 
		183.173,265.125 186.864,224.729 148.961,224.729 	"/>
	<polygon fill="#ECF2F1" points="148.961,129.675 70.664,129.675 79.042,225.029 148.961,224.729 148.961,193.011 107.668,193.011 
		105.175,161.393 148.961,161.393 	"/>
	<polygon fill="#ECF2F1" points="148.961,274.202 148.961,307.117 84.029,289.063 79.94,240.289 111.658,240.289 113.553,264.826 	
		"/>
	<polygon fill="#020202" points="47.623,8.488 62.884,8.488 62.884,23.948 77.446,23.948 77.446,8.488 93.604,8.488 93.604,55.965 
		77.446,55.965 77.446,40.106 62.884,40.106 62.884,55.965 47.623,55.965 	"/>
	<polygon fill="#020202" points="100.187,8.488 144.573,8.488 144.573,23.649 130.31,23.649 130.31,55.965 114.451,55.965 
		114.451,23.948 100.187,23.948 	"/>
	<polygon fill="#020202" points="151.156,55.965 151.156,8.488 168.212,8.488 178.186,24.646 188.26,8.488 204.318,8.488 
		204.318,55.965 188.26,55.965 188.26,33.922 177.687,49.482 166.716,32.227 166.716,55.965 	"/>
	<polygon fill="#020202" points="212.398,8.488 228.855,8.488 228.855,40.505 250.998,40.505 250.998,55.965 212.398,55.965 	"/>
</g>
</svg>
