<?xml version="1.0" encoding="utf-8"?>
<!-- Generator: Adobe Illustrator 17.0.2, SVG Export Plug-In . SVG Version: 6.00 Build 0)  -->
<!DOCTYPE svg PUBLIC "-//W3C//DTD SVG 1.1//EN" "http://www.w3.org/Graphics/SVG/1.1/DTD/svg11.dtd">
<svg version="1.1" id="Layer_1" xmlns="http://www.w3.org/2000/svg" xmlns:xlink="http://www.w3.org/1999/xlink" x="0px" y="0px"
	 width="150px" height="150px" viewBox="0 0 150 150" enable-background="new 0 0 150 150" xml:space="preserve">
<g>
	<rect x="5.651" y="5.651" fill="#232323" width="138.699" height="138.699"/>
	<path fill="#EF4F2E" d="M150,150H0V0h150V150z M11.301,138.699h127.397V11.301H11.301V138.699z"/>
</g>
<g>
	<path fill="#EF4F2E" d="M80.29,63.049c0,4.91-0.56,9.141-1.679,12.695c-1.119,3.555-2.868,6.489-5.243,8.807
		c-2.376,2.317-5.419,4.035-9.131,5.154c-3.711,1.119-8.159,1.679-13.343,1.679H37.699v26.45H23.974V36.305h27.392
		c4.634,0,8.748,0.481,12.341,1.443c3.594,0.963,6.617,2.504,9.072,4.625c2.454,2.121,4.32,4.88,5.597,8.277
		C79.651,54.046,80.29,58.18,80.29,63.049z M65.975,63.167c0-2.945-0.403-5.37-1.208-7.275c-0.806-1.904-1.974-3.407-3.505-4.506
		c-1.532-1.099-3.427-1.865-5.685-2.298c-2.259-0.432-4.84-0.648-7.746-0.648H37.699v30.809H46.3c3.456,0,6.43-0.177,8.925-0.53
		c2.493-0.354,4.536-1.09,6.126-2.209s2.758-2.739,3.505-4.86C65.602,69.529,65.975,66.702,65.975,63.167z"/>
	<path fill="#EF4F2E" d="M130.326,100.691c0,3.417-0.658,6.323-1.973,8.719c-1.316,2.396-3.084,4.359-5.302,5.891
		c-2.22,1.532-4.782,2.641-7.688,3.328c-2.907,0.687-5.95,1.031-9.131,1.031c-3.221,0-6.137-0.275-8.748-0.825
		c-2.612-0.55-4.939-1.305-6.98-2.268c-2.043-0.962-3.8-2.11-5.272-3.446c-1.473-1.334-2.681-2.788-3.623-4.359l9.661-6.479
		c1.688,2.475,3.771,4.241,6.244,5.302c2.475,1.061,5.262,1.591,8.365,1.591c1.531,0,3.023-0.118,4.477-0.354
		c1.453-0.236,2.739-0.657,3.858-1.267c1.119-0.608,2.022-1.423,2.71-2.445c0.687-1.021,1.031-2.297,1.031-3.828
		c0-1.179-0.256-2.18-0.766-3.005c-0.512-0.824-1.316-1.561-2.416-2.209s-2.523-1.257-4.271-1.826
		c-1.748-0.568-3.858-1.148-6.333-1.737c-2.788-0.707-5.459-1.512-8.011-2.416c-2.554-0.902-4.802-2.091-6.745-3.563
		c-1.944-1.473-3.505-3.318-4.684-5.538c-1.178-2.218-1.768-4.978-1.768-8.276c0-2.631,0.491-5.066,1.474-7.305
		c0.98-2.239,2.464-4.183,4.447-5.832c1.982-1.649,4.438-2.945,7.363-3.888c2.925-0.943,6.333-1.414,10.221-1.414
		c2.71,0,5.252,0.256,7.629,0.766c2.375,0.511,4.535,1.237,6.479,2.18s3.661,2.072,5.154,3.387c1.492,1.316,2.71,2.779,3.652,4.389
		l-9.661,6.539c-0.589-0.863-1.296-1.708-2.12-2.533c-0.825-0.825-1.797-1.551-2.916-2.18c-1.119-0.627-2.377-1.128-3.771-1.502
		c-1.395-0.373-2.955-0.56-4.683-0.56c-3.299,0-5.931,0.639-7.894,1.915c-1.965,1.276-2.946,3.132-2.946,5.567
		c0,1.139,0.207,2.101,0.619,2.886c0.412,0.786,1.079,1.493,2.003,2.121c0.922,0.629,2.13,1.188,3.623,1.679
		c1.491,0.491,3.299,0.992,5.419,1.502c3.573,0.904,6.804,1.866,9.69,2.887c2.887,1.021,5.331,2.278,7.334,3.771
		s3.544,3.328,4.625,5.508C129.786,94.771,130.326,97.472,130.326,100.691z"/>
</g>
</svg>
