<?xml version="1.0" encoding="utf-8"?>
<!-- Generator: Adobe Illustrator 17.0.2, SVG Export Plug-In . SVG Version: 6.00 Build 0)  -->
<!DOCTYPE svg PUBLIC "-//W3C//DTD SVG 1.1//EN" "http://www.w3.org/Graphics/SVG/1.1/DTD/svg11.dtd">
<svg version="1.1" id="Layer_1" xmlns="http://www.w3.org/2000/svg" xmlns:xlink="http://www.w3.org/1999/xlink" x="0px" y="0px"
	 width="600px" height="300px" viewBox="0 0 600 300" enable-background="new 0 0 600 300" xml:space="preserve">
<g id="Fixed">
	<path fill="#EF522B" d="M143.253,8.272c-77.894,0-141.266,63.37-141.266,141.263c0,77.895,63.373,141.272,141.266,141.272
		c77.892,0,141.267-63.377,141.267-141.272C284.52,71.643,221.145,8.272,143.253,8.272z M16.244,149.535
		c0-18.415,3.95-35.894,10.998-51.689l60.586,165.995C45.456,243.257,16.244,199.807,16.244,149.535z M143.253,276.553
		c-12.466,0-24.5-1.827-35.882-5.175l38.111-110.732l39.037,106.957c0.257,0.628,0.572,1.205,0.909,1.751
		C172.228,274,158.043,276.553,143.253,276.553z M160.757,89.986c7.645-0.402,14.536-1.208,14.536-1.208
		c6.844-0.81,6.036-10.869-0.81-10.467c0,0-20.572,1.614-33.853,1.614c-12.48,0-33.451-1.614-33.451-1.614
		c-6.849-0.401-7.652,10.063-0.806,10.467c0,0,6.479,0.806,13.322,1.208l19.787,54.218l-27.798,83.36L65.434,89.986
		c7.652-0.402,14.535-1.208,14.535-1.208c6.84-0.81,6.031-10.869-0.812-10.467c0,0-20.569,1.614-33.851,1.614
		c-2.383,0-5.191-0.059-8.175-0.154c22.71-34.477,61.746-57.246,106.119-57.246c33.065,0,63.171,12.643,85.766,33.347
		c-0.548-0.034-1.082-0.103-1.645-0.103c-12.476,0-21.328,10.869-21.328,22.541c0,10.467,6.04,19.323,12.476,29.79
		c4.831,8.459,10.471,19.326,10.471,35.028c0,10.87-4.181,23.483-9.664,41.059l-12.671,42.327L160.757,89.986z M254.704,88.603
		c9.914,18.09,15.556,38.849,15.556,60.932c0,46.857-25.394,87.765-63.153,109.782L245.9,147.155
		c7.245-18.119,9.659-32.608,9.659-45.491C255.558,96.988,255.25,92.649,254.704,88.603z"/>
</g>
<g id="Fixed_1_">
	<g>
		<path fill="#EF522B" d="M456.555,9.151c-77.996,0-141.459,63.451-141.459,141.459c0,77.996,63.463,141.447,141.459,141.447
			s141.459-63.451,141.459-141.447C598.014,72.603,534.551,9.151,456.555,9.151z M456.555,277.637
			c-50.394,0-94.028-29.495-114.532-72.126h11.615l4.89-25.158h17.643c7.796,0,14.195-0.811,19.231-2.456
			c5.025-1.634,9.599-4.371,13.711-8.224c3.459-3.177,6.253-6.681,8.393-10.5c2.141-3.831,3.65-8.055,4.552-12.674
			c2.186-11.21,0.53-19.952-4.935-26.205c-5.464-6.253-14.162-9.385-26.081-9.385h-39.623l-15.469,79.573
			c-4.168-12.539-6.422-25.946-6.422-39.871c0-70.053,56.985-127.038,127.027-127.038c61.097,0,112.257,43.352,124.323,100.923
			c-0.811-1.51-1.78-2.907-2.907-4.202c-5.464-6.253-14.162-9.385-26.081-9.385h-39.623L493.88,205.51h20.606l4.89-25.158h17.643
			c7.796,0,14.195-0.811,19.231-2.456c5.025-1.634,9.599-4.371,13.711-8.224c3.459-3.177,6.253-6.681,8.393-10.5
			c2.141-3.831,3.65-8.055,4.552-12.674c0.192-0.98,0.349-1.938,0.473-2.884c0.135,2.321,0.203,4.653,0.203,6.996
			C583.581,220.652,526.597,277.637,456.555,277.637z M361.423,165.425l7.695-39.59h14.117c7.83,0,13.046,1.442,15.66,4.337
			c2.603,2.884,3.222,7.853,1.859,14.883c-1.42,7.323-4.168,12.551-8.236,15.671c-4.067,3.132-10.252,4.698-18.555,4.698H361.423z
			 M561.601,145.056c-1.419,7.323-4.157,12.551-8.224,15.671c-4.067,3.132-10.264,4.698-18.567,4.698h-12.539l7.695-39.59h14.117
			c7.83,0,13.046,1.442,15.66,4.337C562.345,133.057,562.976,138.026,561.601,145.056z"/>
		<path fill="#EF522B" d="M494.681,116.903c-4.351-3.996-12.257-5.996-23.717-5.996H452.75l4.888-25.152h-20.446l-18.387,94.601
			h20.446l10.532-54.197h16.341c5.231,0,8.651,0.867,10.258,2.599c1.608,1.732,1.947,4.98,1.022,9.741l-8.133,41.857h20.77
			l8.554-44.023C500.334,127.379,499.032,120.901,494.681,116.903z"/>
	</g>
</g>
</svg>
