<?xml version="1.0" encoding="utf-8"?>
<!-- Generator: Adobe Illustrator 19.1.0, SVG Export Plug-In . SVG Version: 6.00 Build 0)  -->
<svg version="1.1" id="Layer_1" xmlns="http://www.w3.org/2000/svg" xmlns:xlink="http://www.w3.org/1999/xlink" x="0px" y="0px"
	 viewBox="-204 206 90 90" style="enable-background:new -204 206 90 90;" xml:space="preserve">
<path d="M-115,260.5V293h-18.8v-30.3c0-7.6-2.7-12.8-9.5-12.8c-5.2,0-8.3,3.5-9.7,6.9c-0.5,1.2-0.6,2.9-0.6,4.6V293h-18.8
	c0,0,0.3-51.4,0-56.7h18.8v8c0,0.1-0.1,0.1-0.1,0.2h0.1v-0.2c2.5-3.9,7-9.4,17-9.4C-124.3,235-115,243.1-115,260.5L-115,260.5z
	 M-192.3,209c-6.4,0-10.7,4.2-10.7,9.8c0,5.4,4.1,9.8,10.4,9.8h0.1c6.6,0,10.7-4.4,10.7-9.8C-181.9,213.2-185.8,209-192.3,209z
	 M-201.8,293h18.8v-56.7h-18.8L-201.8,293L-201.8,293z"/>
</svg>
