<?xml version="1.0" encoding="utf-8"?>
<!-- Generator: Adobe Illustrator 21.0.0, SVG Export Plug-In . SVG Version: 6.00 Build 0)  -->
<svg version="1.1" id="Layer_1" xmlns="http://www.w3.org/2000/svg" xmlns:xlink="http://www.w3.org/1999/xlink" x="0px" y="0px"
	 viewBox="0 0 500 500" style="enable-background:new 0 0 500 500;" xml:space="preserve">
<style type="text/css">
	.st0{fill:#E0E0E0;}
	.st1{fill:#FFFFFF;}
	.st2{fill:#CFE4AB;}
	.st3{fill:#B7B7B7;}
	.st4{fill:#7F7F7F;}
	.st5{fill:#231F20;}
</style>
<g id="Layer_2">
</g>
<path class="st0" d="M130.5,234.4l-0.3,7.5l0,0v20.2c0,18-12.9,32.7-28.5,32.7S73.2,280,73.2,262.1c0-1.4,0.3-19.8,0.3-19.8l0,0v-8
	c-4.4-3.4-6.8-8.7-6.6-14.2c0-9.5,6.8-17.3,15.3-17.3c7.1,0,13.6,5.9,14.9,13.9c0.2,1.2,0.3,2.3,0.3,3.4c0,0.9,0-0.2,0,7
	c0,0,0.2,5.4,4.7,5.4c0,0,4-0.2,4-5.4c0-7.1,0-5.9,0-6.8c0-1.2,0.2-2.3,0.3-3.4c1.6-8.1,7.8-14,15.1-14c8.4,0,14.1,7.8,15.3,17.3
	C136.9,225.5,134.8,230.9,130.5,234.4z"/>
<path class="st1" d="M121.8,200.5c-9.2,0-17,4.7-20.2,11.1c-3.1-6.6-10.9-11.1-20.2-11.1c-12,0-21.6,7.8-21.6,17.3
	s9.8,17.3,21.6,17.3c9.2,0,17-4.7,20.2-11.1c3.1,6.6,10.9,11.1,20.2,11.1c14.5,0,21.6-7.8,21.6-17.3S133.8,200.5,121.8,200.5z"/>
<path class="st2" d="M136.9,201.7l0.5-17.2c0-0.2-0.2-0.3-0.3-0.3s-0.2,0-0.3,0.2l-11.6,7.1l0,0c-7.5-3.3-15.8-5.1-24-4.7
	c-9.4,0-18,1.2-25,4.8L65,184.4c-0.2-0.2-0.3-0.2-0.5,0l-0.2,0.2l0.5,17.2c-4,5.9-6.4,13.4-6.4,23.1l5.1,33.9
	c4.1,24.1,8.8,33.5,27.4,39.1c3.3,1.2,6.8,1.9,10.2,1.9c3,0,5.9-0.3,8.7-1.4c19.8-4.5,27.7-15.5,30.9-39.6l3.8-33.9
	C144.6,216.5,142,208.5,136.9,201.7z M130.5,234.4l-0.3,7.5l0,0v20.2c0,18-12.9,32.7-28.5,32.7S73.2,280,73.2,262.1
	c0-1.4,0.3-19.8,0.3-19.8l0,0v-8c-4.4-3.4-6.8-8.7-6.6-14.2c0-9.5,6.8-17.3,15.3-17.3c7.1,0,13.6,5.9,14.9,13.9
	c0.2,1.2,0.3,2.3,0.3,3.4c0,0.9,0-0.2,0,7c0,0,0.2,5.4,4.7,5.4c0,0,4-0.2,4-5.4c0-7.1,0-5.9,0-6.8c0-1.2,0.2-2.3,0.3-3.4
	c1.6-8.1,7.8-14,15.1-14c8.4,0,14.1,7.8,15.3,17.3C136.9,225.5,134.8,230.9,130.5,234.4z"/>
<path class="st3" d="M136.9,201.7l0.5-17.2c0-0.2-0.2-0.3-0.3-0.3s-0.2,0-0.3,0.2l-11.6,7.1l0,0c-7.5-3.3-15.8-5.1-24-4.7
	c-9.4,0-18,1.2-25,4.8L65,184.4c-0.2-0.2-0.3-0.2-0.5,0l-0.2,0.2l0.5,17.2c-4,5.9-6.4,13.4-6.4,23.1l5.1,33.9
	c4.1,24.1,8.8,33.5,27.4,39.1c3.3,1.2,6.8,1.9,10.2,1.9c3,0,5.9-0.3,8.7-1.4c19.8-4.5,27.7-15.5,30.9-39.6l3.8-33.9
	C144.6,216.5,142,208.5,136.9,201.7z M130.5,234.4l-0.3,7.5l0,0v20.2c0,18-12.9,32.7-28.5,32.7S73.2,280,73.2,262.1
	c0-1.4,0.3-19.8,0.3-19.8l0,0v-8c-4.4-3.4-6.8-8.7-6.6-14.2c0-9.5,6.8-17.3,15.3-17.3c7.1,0,13.6,5.9,14.9,13.9
	c0.2,1.2,0.3,2.3,0.3,3.4c0,0.9,0-0.2,0,7c0,0,0.2,5.4,4.7,5.4c0,0,4-0.2,4-5.4c0-7.1,0-5.9,0-6.8c0-1.2,0.2-2.3,0.3-3.4
	c1.6-8.1,7.8-14,15.1-14c8.4,0,14.1,7.8,15.3,17.3C136.9,225.5,134.8,230.9,130.5,234.4z"/>
<path class="st4" d="M136.9,201.7l0.5-17.2c0-0.2-0.2-0.3-0.3-0.3s-0.2,0-0.3,0.2l-11.6,7.1l0,0c-7.5-3.3-15.8-5.1-24-4.7H101v45.4
	c0.2,0,0.5,0,0.7,0c0,0,4-0.2,4-5.4c0-7.1,0-5.9,0-6.8c0-1.2,0.2-2.3,0.3-3.4c1.4-8,7.7-13.9,14.9-13.9c8.4,0,14.1,7.8,15.3,17.3
	c0.7,5.5-1.4,10.9-5.7,14.6l-0.3,7.5l0,0v20c0,18-12.9,32.7-28.5,32.7h-0.5v5.1l0,0c3,0,5.9-0.3,8.7-1.4
	c19.8-4.5,27.7-15.5,30.9-39.6l3.8-33.9C144.6,216.5,142,208.5,136.9,201.7z"/>
<path class="st5" d="M84.3,211.3c-0.7,0-1.4,0.2-2.1,0.3c1.4,0.3,2.4,1.6,2.4,3c0,1.7-1.6,3.1-3.3,3.1c-1.6,0-2.8-0.9-3.3-2.4
	c-0.7,1.4-1.2,3-1,4.5c0,4.7,3.3,8.4,7.3,8.4s7.3-3.8,7.3-8.4C91.6,215.3,88.2,211.3,84.3,211.3z"/>
<path class="st5" d="M119.2,211.3c-0.7,0-1.6,0.2-2.3,0.3c1.4,0.3,2.3,1.6,2.3,2.8c0,1.7-1.6,3.1-3.3,3.1c-1.4,0-2.4-0.7-3.1-1.9
	c-0.5,1.2-0.9,2.6-0.9,4c0,4.7,3.3,8.4,7.3,8.4c4,0,7.3-3.8,7.3-8.4C126.5,215.1,123.4,211.3,119.2,211.3z"/>
<path class="st1" d="M115.6,299c0.2,1.6-1,2.8-2.4,3l0,0l0,0c-1.6-0.2-2.6-1.4-2.4-3v-4.7c0-1.4,1-2.8,2.4-2.8l0,0
	c1.6,0.2,2.6,1.4,2.6,3v4.5L115.6,299L115.6,299z"/>
<path class="st1" d="M122,301.9c0.2,1.6-1,2.8-2.6,3l0,0c-1.6-0.2-2.6-1.4-2.6-3v-4.7c-0.2-1.6,1-2.8,2.6-3l0,0
	c1.6,0.2,2.6,1.4,2.6,3V301.9z"/>
<path class="st1" d="M128.8,304.1c0.2,1.6-1,2.8-2.6,3l0,0c-1.6-0.2-2.6-1.4-2.6-3v-4.7c-0.2-1.6,1-2.8,2.6-3l0,0
	c1.6,0.2,2.6,1.4,2.6,3V304.1L128.8,304.1z"/>
<path class="st5" d="M126.1,294.7c-1,0-2.1,0.5-2.8,1.4c-0.2-1.9-1.7-3.4-3.8-3.7c-1,0-2.1,0.5-2.8,1.4c-0.2-2.1-1.7-3.7-3.8-3.8
	c-2.3,0.2-4,2.1-3.8,4.1v5.4c-0.2,2.3,1.6,4.1,3.8,4.1c1,0,2.1-0.5,2.8-1.4c0,2.1,1.7,3.8,3.8,3.8c1,0,2.1-0.5,2.8-1.4
	c0.2,1.9,1.7,3.4,3.8,3.7c2.3-0.2,4-2.1,3.8-4.1v-5.4C130.1,296.8,128.4,294.9,126.1,294.7z M114.9,299.8c0.2,1-0.5,2.3-1.7,2.4
	c-1,0.2-2.3-0.5-2.4-1.7c0-0.2,0-0.5,0-0.7v-5.4c-0.2-1,0.5-2.3,1.7-2.4c1-0.2,2.3,0.5,2.4,1.7c0,0.2,0,0.5,0,0.7V299.8L114.9,299.8
	z M121.6,302.2c0.2,1-0.5,2.3-1.6,2.4s-2.3-0.5-2.4-1.6c0-0.3,0-0.5,0-0.9v-5.4c-0.2-1,0.5-2.3,1.6-2.4s2.3,0.5,2.4,1.6
	c0,0.3,0,0.5,0,0.9V302.2z M128.2,304.4c0.2,1-0.5,2.3-1.7,2.4c-1,0.2-2.3-0.5-2.4-1.7c0-0.2,0-0.5,0-0.7V299
	c-0.2-1,0.5-2.3,1.7-2.4c1-0.2,2.3,0.5,2.4,1.7c0,0.2,0,0.5,0,0.7V304.4L128.2,304.4z"/>
<path class="st1" d="M86.9,299c-0.2,1.6,1,2.8,2.4,3l0,0l0,0c1.6-0.2,2.6-1.4,2.6-3v-4.7c0-1.4-1-2.8-2.6-2.8l0,0
	c-1.6,0.2-2.6,1.4-2.6,3v4.5L86.9,299L86.9,299z"/>
<path class="st1" d="M80.3,301.9c-0.2,1.6,1,2.8,2.6,3l0,0c1.6-0.2,2.6-1.4,2.6-3v-4.7c0.2-1.6-1-2.8-2.6-3l0,0
	c-1.6,0.2-2.6,1.4-2.6,3l0,0C80.3,297.2,80.3,301.9,80.3,301.9z"/>
<path class="st1" d="M73.6,304.1c-0.2,1.6,1,2.8,2.6,3l0,0c1.6-0.2,2.6-1.4,2.6-3v-4.7c0.2-1.6-1-2.8-2.6-3l0,0
	c-1.6,0.2-2.6,1.4-2.6,3V304.1L73.6,304.1z"/>
<path class="st5" d="M72.5,299v5.4c-0.2,2.1,1.6,4,3.8,4.1c1.9-0.2,3.7-1.6,3.8-3.7c0.7,0.9,1.7,1.4,2.8,1.4
	c2.1-0.2,3.7-1.7,3.8-3.8c0.7,0.9,1.7,1.4,2.8,1.4c2.3-0.2,4-2.1,3.8-4.1v-5.4c0.2-2.3-1.6-4.1-3.8-4.1c-2.1,0.2-3.7,1.7-3.8,3.8
	c-0.7-0.9-1.7-1.4-2.8-1.4c-1.9,0.2-3.7,1.7-3.8,3.7c-0.7-0.9-1.7-1.4-2.8-1.4C74,294.9,72.5,296.8,72.5,299z M87.5,294.4
	c-0.2-1.2,0.9-2.3,2.1-2.4c1.2,0.2,2.1,1.2,2.1,2.4v5.4c0.2,1.2-0.9,2.3-2.1,2.4c-1.2-0.2-2.1-1.2-2.1-2.4V294.4L87.5,294.4z
	 M81,296.8c-0.2-1.2,0.9-2.3,2.1-2.4c1.2,0.2,2.1,1.2,1.9,2.4v5.4c0.2,1.2-0.9,2.3-2.1,2.4c-1.2-0.2-2.1-1.2-1.9-2.4V296.8z
	 M74.2,299c-0.2-1.2,0.9-2.3,2.1-2.4c1.2,0.2,2.1,1.2,2.1,2.4v5.4c0.2,1.2-0.9,2.3-2.1,2.4c-1.2-0.2-2.1-1.2-2.1-2.4V299z"/>
<path class="st5" d="M183,214.8c3-6.8,5.7-13.7,7.8-20.9c1.6,7.3,2.1,9.4,6.4,20.9c-3.8,0.2-5.2,0.2-7.8,0.2
	C187,214.9,185.7,214.9,183,214.8z M163.9,236.3c2.3,0,3.3,0,5.2,0c1.7,0,3.3,0,5.1,0h1c2.1-5.9,2.6-7.7,5.5-14.9h1.7h14.9h2.3
	c2.4,7,3,8.7,5.2,14.9c3.1-0.2,4.1-0.2,7-0.2c2.4,0,4.8,0,7.1,0h1.2l-3-7.7l-15.6-37.7l-3.4-8.7c-3.4,0.9-7,1.4-10.4,1.7l-2.6,5.2
	C172.4,216.3,170.3,220.7,163.9,236.3L163.9,236.3z"/>
<path class="st5" d="M223.2,231.6l0.2-18.7v-1.6c0-4.5-0.3-9.1-0.9-13.6c2.3,0.2,2.8,0.2,5.4,0.2c2.1,0,4.4,0,6.6-0.2h0.9l0.2,1
	c0.3,1.9,0.5,3.8,0.5,5.5c2.1-5.2,6.6-7.7,13.7-7.7c3.8-0.2,7.5,0.9,10.6,3.1c3.4,2.8,4.5,5.5,4.5,13.6v0.5l-0.2,20.7l0.2,1.7
	c-3.1-0.2-4.4-0.2-7-0.2s-3.8,0-7.1,0.2v-1.9c0.3-4.5,0.3-9.1,0.3-13.4c0-2.3-0.2-4.5-0.2-6.8c0.2-2.3-0.2-4.7-0.7-7
	c-0.5-2.6-2.8-4.1-5.4-4c-5.2,0-8.2,3.7-8.2,10.2v10.6c0.2,7.8,0.2,8.5,0.3,12.2h-1.4c-2.3,0-4.5,0-6.8,0c-2.3,0-3.3,0-5.9,0.2
	L223.2,231.6z"/>
<path class="st5" d="M266.9,233.2c1.4-1.7,2.4-3.4,3.4-5.4c2.4,1.7,5.2,2.8,8.2,3c3.3,0,5.2-1.4,5.2-3.8c0-0.5,0-0.9-0.2-1.2
	c-0.7-1.4-1.6-2.3-5.2-4.8c-7-4.8-9.4-8.2-9.4-12.5c0-7.1,6.8-11.6,16.9-11.6c4.1-0.2,8.2,0.7,11.8,2.6c-0.2,0.2-0.3,0.5-0.5,0.7
	c-0.3,0.5-1.4,2.1-2.6,4.7l-0.3,0.7c-2.6-1.4-5.5-2.1-8.5-2.1s-4.8,1-4.8,2.8c0,1,1,2.4,3,3.8l3.4,2.4c6.4,4.4,9.8,9.2,9.8,13.4
	c0,7-6.8,11.8-16.3,11.8c-5.1,0.2-9.9-1-14.2-3.7L266.9,233.2z"/>
<path class="st5" d="M299.8,197.9h12.3h0.9l5.7,19.5c0.9,2.4,1.4,4.8,1.7,7.5c0.2-2.6,0.9-5.2,1.7-7.8l7-19.1c2.1,0.2,4,0.3,6.1,0.2
	c1.7,0,3.3,0,5.1-0.2l8.2,21.7c0.2,0.2,0.2,0.9,0.5,1.9c0.3,1,0.3,1.7,0.9,3.3c3.7-14.6,4.5-17.3,6.4-26.8c1.6,0.2,3.1,0.2,4.7,0.2
	c1.7,0,3.4,0,5.2-0.2h0.9l-1.6,4.8l-10.8,31.8l-0.9,1.7H353c-1.7,0-3.4-0.2-5.4-0.2c-1.9,0-2.6,0-4.7,0.2l-7.3-19.8
	c-0.2-0.3-0.3-0.5-0.3-0.9c-1.2-3.4-1.9-5.5-2.1-6.2c0-0.3-0.2-1.2-0.3-2.4l-0.5,2.1l-2.1,7.7l-6.1,19.5c-1.9-0.2-4-0.3-6.1-0.3
	c-1.9,0-4,0.2-5.9,0.3l-0.7-2.1l-5.7-17.3l-5.4-15.2l-1.4-4L299.8,197.9z"/>
<path class="st5" d="M437.4,207.6c-0.7-0.5-1.2-0.9-1.6-1c-1.6-0.9-3.4-1.2-5.2-1.2c-1.9,0-3.7,0.5-5.2,1.7c-1.6,1.4-2.1,3-2.4,6.8
	v10.4c0,7.7,0.2,8.5,0.2,12.2h-1.4c-2.3,0-4.5-0.2-7-0.2c-2.4,0-3.3,0-5.9,0.2l0.2-1.9c0.2-4.5,0.2-11.8,0.2-21.6V208
	c0-3.3-0.3-6.8-0.9-10.1c2.3,0.2,2.8,0.2,5.4,0.2c2.1,0,4.4,0,6.6-0.2h0.9l0.2,1l0.2,3.7l0.2,3c1.2-2.6,3.1-4.8,5.5-6.6
	c2.4-1.4,5.1-2.1,7.8-1.9c2.6,0,5.2,0.5,7.7,1.7c-0.2,0.3-0.3,0.7-0.5,1c-2.4,4.5-3.7,7-3.8,7.5c0,0.3-0.2,0.5-0.2,0.9L437.4,207.6z
	"/>
<path class="st4" d="M392.9,212.7h-14.2c0.7-4.4,2.6-8,7.1-8C390.3,204.8,392.2,207.6,392.9,212.7z M378.5,219.4h27.1
	c0-15.8-9.2-22.4-19.3-22.4c-10.8,0-20.2,8-20.2,20.9s8.4,20.5,20.5,20.5c11.1,0,14.2-1.9,16.9-3.1l-2.3-6.6
	c-3.3,1.2-6.8,1.9-10.2,1.9C382.1,230.6,378.5,225.7,378.5,219.4L378.5,219.4z"/>
<path class="st5" d="M162,310.4l4-15.6l0.9-3.4l4.8-21.2c-3.7,0-4,0-6.6,0c0.3-1,0.7-2.1,0.9-3.3c2.3,0.2,3,0.2,5.7,0.2h0.7l0.7-3.4
	c1.2-6.2,2.4-8.7,5.5-11.1c2.4-1.6,5.4-2.4,8.4-2.4c2.6,0,5.2,0.5,7.5,1.7c-0.7,0.9-1.2,1.7-1.7,2.8c-1.7-0.9-3.4-1.4-5.4-1.4
	c-1.9-0.2-3.8,0.5-5.2,1.9c-1.9,2.1-2.8,4.4-4.1,11.8h2.8c3.4,0,4.1,0,7.3-0.2c-0.3,1.2-0.5,2.3-0.7,3.4c-3.3-0.2-4.1-0.2-8.4-0.2
	h-1.6l-4.8,21.4l-0.9,3.8l-3.8,15.3l-2.1,8l-0.9-0.2c-2.3-0.5-2.8-0.7-4.7-1L162,310.4z"/>
<path class="st5" d="M196.4,266.5c1,0,1.7,0,3,0l-0.7,3.1L192,298l-0.7,3.1c-1.4,0-1.9,0-3,0c-1,0-1.7,0-3.1,0l0.7-3.1l6.6-28.5
	l0.7-3.1C194.6,266.5,195.1,266.5,196.4,266.5z M197.6,260.1c-1.4,0-2.1-1-2.1-3c0-3,1.9-5.5,4-5.5c1.4,0.2,2.3,1.2,2.3,2.6v0.2
	C201.8,257.5,199.8,260.1,197.6,260.1L197.6,260.1z"/>
<path class="st5" d="M202.3,298.9l4.1-16.7c1.4-5.1,2.3-10.4,2.6-15.6c1,0,1.6,0,2.6,0s1.6,0,3,0c-0.5,4.8-1.4,9.8-2.6,14.6
	c1.4-2.8,3.1-5.5,5.1-7.8c4-5.1,8.5-7.5,13.4-7.5s7.1,3,7.1,8c0,0.9,0,1.6-0.2,2.4c-0.7,4.7-3.7,16.3-5.9,24l-0.2,1
	c-1.6,0-2.1,0-3.3,0c-1.2,0-1.6,0-3,0c4.4-14.8,6.2-23.1,6.2-26.6c0-3.4-1-4.7-3.7-4.7c-3,0-6.8,2.8-10.9,7.8c-1,1.2-1.9,2.4-3,3.8
	c-1.4,1.7-2.4,3.8-3,6.1l-3.3,13.7c-1.6,0-2.1,0-3.3,0c-0.9,0-1.4,0-2.4,0L202.3,298.9z"/>
<path class="st5" d="M270.9,275.2l-1.6,6.4c-1.7,4-4.1,7.7-7.5,10.8c-1.7,1.7-3.8,3.1-5.9,4.4c-1.2,0.5-2.6,0.9-4,1
	c-3,0-4.5-2.1-4.5-6.1c0-9.2,6.1-19.3,13.4-21.9c1-0.3,2.3-0.7,3.4-0.7C267.8,269.1,270.7,271.8,270.9,275.2z M265.2,301.3
	c1,0,1.4,0,2.1,0h2.1h1c1.4-8.8,3.4-17.7,6.1-26.4c0.2-0.5,0.3-1,0.5-1.6c0.7-2.3,1.6-4.5,2.6-6.8c-1.9,0-2.6,0-3.4,0s-1,0-1.9,0
	c-0.5,1.4-1,2.6-1.6,4c-1.6-3.1-5.1-5.1-8.5-4.8c-11.6,0-23.1,12.7-23.1,25.7c0,6.6,3.3,10.2,8.8,10.2c2.8,0,5.5-0.9,8-2.3
	c3.7-2.3,6.8-5.4,8.8-9.1c0.7-0.9,1.2-1.9,1.9-3C266.9,294.5,266.4,296.2,265.2,301.3z"/>
<path class="st5" d="M281.4,298.9l4.1-16.7c1.4-5.1,2.3-10.4,2.6-15.6c1,0,1.6,0,2.6,0c1,0,1.6,0,3,0c-0.5,4.8-1.4,9.8-2.6,14.6
	c1.4-2.8,3.1-5.5,5.1-7.8c4-5.1,8.5-7.5,13.4-7.5s7.1,3,7.1,8c0,0.9,0,1.6-0.2,2.4c-0.9,4.7-3.7,16.3-6.1,24.1l-0.2,1
	c-1.6,0-2.1,0-3.3,0c-1.2,0-1.6,0-2.8,0c4.4-14.9,6.4-23.1,6.4-26.6c0-3.4-1-4.7-3.7-4.7c-3,0-6.8,2.8-10.9,7.8
	c-1,1.2-1.9,2.4-2.8,3.8c-1.4,1.7-2.4,3.8-3,6.1l-3.3,13.7c-1.6,0-2.1,0-3.3,0c-0.9,0-1.4,0-2.4,0L281.4,298.9z"/>
<path class="st5" d="M342.1,268.7c-7.3,0-14.5,9.1-14.5,18.6c0,7,3.7,10.8,9.9,10.8c3.1,0,6.1-0.7,8.8-2.1l1.6,2.3
	c-3.7,2.4-8.2,3.8-12.7,3.8c-8.5,0-14.2-5.9-14.2-14.5c-0.2-11.8,9.2-21.6,20.9-21.7c0.2,0,0.2,0,0.3,0c6.6,0,10.6,3,11.5,8.7
	c-2.1,0.2-4,0.7-6.1,1.4C347.5,271.1,345.7,268.7,342.1,268.7z"/>
<path class="st5" d="M364.4,266.5c1,0,1.7,0,3,0l-0.7,3.1l-6.8,28.5l-0.7,3.1c-1.4,0-1.9,0-3,0s-1.7,0-3.1,0l0.7-3.1l6.6-28.5
	l0.7-3.1C362.7,266.5,363.2,266.5,364.4,266.5z M365.7,260.1c-1.4,0-2.1-1-2.1-3c0-3,1.9-5.5,4-5.5c1.4,0.2,2.3,1.2,2.3,2.6v0.2
	C369.8,257.5,367.9,260.1,365.7,260.1L365.7,260.1z"/>
<path class="st5" d="M399.2,275.2l-1.6,6.4c-1.7,4-4.1,7.7-7.5,10.8c-1.7,1.7-3.8,3.1-5.9,4.4c-1.2,0.5-2.6,0.9-4,1
	c-2.8,0-4.5-2.1-4.5-6.1c0-9.2,6.1-19.3,13.4-21.9c1-0.3,2.3-0.7,3.4-0.7C396,269.1,399,271.8,399.2,275.2z M393.5,301.3
	c1,0,1.4,0,2.1,0h2.1h1c1.4-8.8,3.4-17.7,6.1-26.4c0.2-0.5,0.3-1,0.5-1.6c0.7-2.3,1.6-4.5,2.6-6.8c-1.9,0-2.6,0-3.4,0
	c-0.9,0-1,0-1.9,0c-0.5,1.4-1,2.6-1.6,4c-1.6-3.1-5.1-5.1-8.5-4.8c-11.6,0-23.1,12.7-23.1,25.7c0,6.6,3.3,10.2,8.8,10.2
	c2.8,0,5.5-0.9,8-2.3c3.7-2.3,6.8-5.4,8.8-9.1c0.7-0.9,1.2-1.9,1.9-3C395,294.5,394.5,296.2,393.5,301.3L393.5,301.3z"/>
<path class="st5" d="M409.8,297.6l10.4-44.5l0.7-3.1h0.3h5.2h0.3l-0.7,3.1l-10.4,44.5l-0.9,3.7h-0.2c-1,0-2.3,0-3.3,0
	c-1,0-1.2,0-2.4,0L409.8,297.6z"/>
<path class="st5" d="M427.3,289.5c3.1,0.2,5.5,2.8,5.5,5.9c-0.2,3.1-2.8,5.5-5.9,5.4s-5.5-2.8-5.4-5.9
	C421.7,291.8,424.2,289.5,427.3,289.5z M426.1,294.9v-2.7h0.7c0.7-0.2,1.4,0.3,1.6,1v0.2c0,0.9-0.5,1.4-1.4,1.4h-0.2L426.1,294.9
	L426.1,294.9z M430.6,299.2l-2.4-3.8c0.9-0.2,1.6-1,1.6-1.9c0-1.2-1-1.9-2.6-1.9h-2.3v7.8h1.2V296h0.9l2.1,3.7h1.6L430.6,299.2
	L430.6,299.2z M427.3,288.3c-3.8,0-7,3.1-7,7s3.1,7,7,7c3.8,0,7-3.1,7-7l0,0c0.2-3.7-2.8-6.8-6.6-7
	C427.5,288.3,427.5,288.3,427.3,288.3z"/>
</svg>
