<?xml version="1.0" encoding="utf-8"?>
<!-- Generator: Adobe Illustrator 19.1.0, SVG Export Plug-In . SVG Version: 6.00 Build 0)  -->
<svg version="1.1" id="Layer_1" xmlns="http://www.w3.org/2000/svg" xmlns:xlink="http://www.w3.org/1999/xlink" x="0px" y="0px"
	 viewBox="0 0 300 228.1" style="enable-background:new 0 0 300 228.1;" xml:space="preserve">
<g>
	<path d="M146.9,215.9L136.3,189h-9.1l0.5,1.2l15.6,37.8h6.9l16.1-39.1h-9L146.9,215.9 M241.8,212.9L223.4,189H216v38.8h8.2v-24.6
		l19,24.6h6.8V189h-8.2V212.9z M183.8,188.7l-17.1,39.1h8.5l7.1-16.5h0l5-11.7l0,0l0.1-0.2l4.6,11l-3.1,7.2h6.1l2.2,5.2l2.1,4.9h8.8
		L191,188.7H183.8z M282.9,188.7h-7.2l-17.1,39.1h8.5l7.1-16.5h0l5-11.6v0l0.1-0.3l4.6,11l-3.1,7.2h6.2l2.2,5.2l2.1,4.9h8.8
		L282.9,188.7z"/>
	<path d="M31.7,219.4c-1.6,1.6-3.4,3-5.4,4.1c-2,1-4.3,1.6-7.1,1.6c-2.2,0-4.2-0.4-6.1-1.3c-1.9-0.9-3.5-2-4.9-3.5
		c-1.4-1.5-2.5-3.2-3.3-5.3c-0.8-2-1.2-4.1-1.2-6.4v-0.1c0-2.3,0.4-4.4,1.2-6.4c0.8-2,1.9-3.8,3.3-5.3c1.4-1.5,3-2.7,4.9-3.5
		c1.9-0.9,3.9-1.3,6.2-1.3c1.5,0,2.8,0.1,4,0.4c1.2,0.3,2.3,0.7,3.3,1.2c1,0.5,1.9,1,2.7,1.7c0.8,0.7,1.6,1.3,2.4,2.1l0.6,0.6
		l2.5-2.6l-0.7-0.6c-0.9-0.9-1.9-1.7-2.8-2.4c-1-0.7-2.1-1.4-3.3-1.9c-1.2-0.6-2.5-1-3.9-1.3c-1.4-0.3-3-0.5-4.8-0.5
		c-2.8,0-5.3,0.5-7.7,1.6c-2.3,1.1-4.4,2.5-6.1,4.4c-1.7,1.8-3,4-4,6.4c-0.9,2.4-1.4,5-1.4,7.7v0.1c0,2.7,0.5,5.3,1.4,7.8
		c0.9,2.4,2.3,4.5,4,6.3c1.7,1.8,3.7,3.2,6,4.3c2.3,1.1,4.9,1.6,7.6,1.6c1.7,0,3.3-0.2,4.7-0.5c1.4-0.3,2.8-0.8,4.1-1.4
		c1.3-0.6,2.4-1.3,3.5-2.1c1-0.8,2-1.7,2.9-2.6l0.6-0.6l-2.6-2.5L31.7,219.4 M60.3,188.7l-18.4,39.1h3.8l15.9-34l9.1,19l-2.3,4.8H73
		l4.8,10.1h3.7l-18.4-39.1H60.3 M109.4,211.6c1.2-0.2,2.3-0.5,3.3-0.9c1.5-0.6,2.8-1.3,4-2.3c1.1-1,2-2.1,2.6-3.5
		c0.6-1.4,0.9-2.9,0.9-4.6v-0.1c0-1.5-0.3-2.9-0.8-4.2c-0.5-1.3-1.2-2.4-2.2-3.3c-1.2-1.2-2.8-2.2-4.7-2.8c-1.9-0.7-4.1-1-6.5-1H90
		v38.8h3.6V212h11.8l12.1,15.8h4.5L109.4,211.6 M93.5,208.6v-16.1H106c3.5,0,6.2,0.8,8,2.2c1.8,1.4,2.7,3.2,2.7,5.8v0.1
		c0,1.2-0.2,2.2-0.7,3.2c-0.5,1-1.1,1.8-2.1,2.5c-0.9,0.7-2.1,1.3-3.5,1.7c-1.4,0.4-3,0.6-4.8,0.6H93.5"/>
</g>
<g>
	<g>
		<g>
			<path d="M151.2,39.9c-4.8,0-9.2,0.3-12.5,0.9c-2.6,0.4-4.7,1-5.6,1.5l0.3,0.2c0.8,0.4,2.2,0.8,4,1.1c3.5,0.7,8.4,1.1,13.9,1.1
				c4.8,0,9.2-0.3,12.5-0.9c2.6-0.4,4.7-1.1,5.6-1.5l-0.3-0.2c-0.8-0.4-2.2-0.8-4-1.1C161.6,40.3,156.6,39.9,151.2,39.9 M151.2,47.5
				c-4.9,0-9.4-0.3-13-0.9c-3.6-0.6-6.1-1.2-7.6-2.6c-0.4-0.4-0.9-1-0.9-1.8c0-0.8,0.4-1.4,0.9-1.8c0.5-0.4,1-0.7,1.5-1
				c1.2-0.5,2.7-1,4.6-1.3c3.7-0.7,8.8-1.1,14.4-1.1c4.9,0,9.4,0.3,12.9,0.9c3.6,0.6,6.1,1.2,7.6,2.6c0.4,0.4,0.9,1,0.9,1.8
				c0,0.8-0.4,1.4-0.9,1.8c-0.4,0.4-1,0.7-1.5,1c-1.2,0.5-2.7,1-4.6,1.3C161.9,47.1,156.8,47.5,151.2,47.5"/>
			<path d="M184,78.3c-1.4-1.7-4-5.9-4.2-6.5c0.2,0,0.3-0.1,0.3-0.1s8.1-0.4,6.6-3.2c0,0-1.6-3.4-7.5-3.4c-0.2,0-0.5,0-0.8,0l0,0
				c-0.3,0-0.7,0.1-0.8,2.2c-4.9-9.1-8.3-11-8.3-11c-0.6-0.4-1.1-0.6-2.8-0.9c-1.7-0.3-14.5-0.4-15.6-0.4l0,0h0c0,0,0,0,0,0l0,0
				c-1.1,0-13.9,0.1-15.6,0.4c-1.7,0.3-2.1,0.6-2.8,0.9c0,0-3.4,1.9-8.3,11c-0.2-2-0.5-2.2-0.8-2.2l0,0c-0.3,0-0.5,0-0.8,0
				c-5.9,0-7.5,3.4-7.5,3.4c-1.5,2.8,6.6,3.2,6.6,3.2s0.2,0,0.3,0.1c-0.3,0.6-2.8,4.8-4.2,6.5c-0.3,0.3-1.8,2-2.3,3.4
				c-0.1,0.3-0.7,1.7-0.6,3.8c0.1,2.1,0.3,11.5,0.3,11.5v11.8c0,0.7,0.4,1.2,1,1.2h9.3c0.5,0,1-0.5,1-1.2v-1.5c0,0,23.1,0,24.5,0
				c1.4,0,24.5,0,24.5,0v1.5c0,0.7,0.4,1.2,1,1.2h9.3c0.6,0,1-0.5,1-1.2V97c0,0,0.2-9.3,0.3-11.5c0.1-2.1-0.5-3.6-0.6-3.8
				C185.8,80.4,184.3,78.6,184,78.3z M127.5,69.3c0,0,3.6-7.9,6.4-11.3c0,0,5.3-0.2,12.3-0.3l-0.2,0.5v1.2c0,0.5,0.4,0.8,0.8,0.8h4
				h0.1h4c0.5,0,0.8-0.4,0.8-0.8v-1.2l-0.2-0.5c7,0.1,12.3,0.3,12.3,0.3c2.8,3.4,6.4,11.3,6.4,11.3c0.5,1.3-0.6,1.3-0.6,1.3
				c-3.1,0-18.8,0-22.7,0c0,0-0.1,0-0.1,0c-4,0-19.7,0-22.8,0C128.1,70.6,127,70.6,127.5,69.3z M118.9,88.7c-1.8-0.4-2-1.5-2-1.5
				c-0.3-2.4,0.6-4.7,0.6-4.7c0.6-1.6,2.1-1.7,3.3-1.7c1.3,0,5.3,2.5,5.3,2.5c3,1.6,3.4,6.9,3.4,6.9C125.8,90,120.7,89.1,118.9,88.7
				z M168.9,90.5c-5.4,0.5-13.3,0.5-18,0.5c-4.8,0-12.6,0-18-0.5c0,0-1.6-3.3,0.8-3.4c0.3,0,7.3-0.3,17.2-0.3
				c9.9,0,16.9,0.3,17.2,0.3C170.5,87.2,168.9,90.5,168.9,90.5z M184.8,87.2c0,0-0.2,1.1-2,1.5c-1.8,0.4-6.9,1.3-10.6,1.6
				c0,0,0.4-5.4,3.4-6.9c0,0,3.9-2.5,5.3-2.5c1.1,0,2.7,0.1,3.3,1.7C184.2,82.5,185.1,84.7,184.8,87.2z"/>
		</g>
	</g>
</g>
<path d="M151.2,153.3c-10.3,0-20.4-2-29.8-6c-9.1-3.9-17.3-9.4-24.4-16.4c-7-7-12.6-15.2-16.4-24.4c-4-9.5-6-19.5-6-29.8
	c0-10.4,2-20.4,6-29.8C84.4,37.7,90,29.5,97,22.5c7-7,15.2-12.6,24.4-16.4c9.5-4,19.5-6,29.8-6c10.3,0,20.4,2,29.8,6
	c9.1,3.9,17.3,9.4,24.4,16.4c7,7,12.6,15.2,16.4,24.4c4,9.5,6,19.5,6,29.8c0,10.4-2,20.4-6,29.8c-3.9,9.1-9.4,17.3-16.4,24.4
	c-7,7-15.2,12.6-24.4,16.4C171.6,151.3,161.6,153.3,151.2,153.3z M151.2,2.3c-10,0-19.8,2-28.9,5.8c-8.9,3.7-16.8,9.1-23.6,15.9
	c-6.8,6.8-12.2,14.8-15.9,23.6c-3.9,9.2-5.8,18.9-5.8,28.9s2,19.8,5.8,28.9c3.7,8.9,9.1,16.8,15.9,23.6c6.8,6.8,14.8,12.2,23.6,15.9
	c9.2,3.9,18.9,5.8,28.9,5.8c10,0,19.8-2,28.9-5.8c8.9-3.7,16.8-9.1,23.6-15.9c6.8-6.8,12.2-14.8,15.9-23.6
	c3.9-9.2,5.8-18.9,5.8-28.9s-2-19.8-5.8-28.9c-3.7-8.9-9.1-16.8-15.9-23.6C197,17.3,189,11.9,180.2,8.2C171,4.3,161.3,2.3,151.2,2.3
	z"/>
</svg>
